<svg xmlns="http://www.w3.org/2000/svg" xmlns:xlink="http://www.w3.org/1999/xlink" width="500" zoomAndPan="magnify" viewBox="0 0 375 374.999991" height="500" preserveAspectRatio="xMidYMid meet" version="1.0"><defs><clipPath id="1d784a1fd9"><path d="M 37.5 41.628906 L 175.960938 41.628906 L 175.960938 180.089844 L 37.5 180.089844 Z M 37.5 41.628906 " clip-rule="nonzero"/></clipPath><clipPath id="c332c0f998"><path d="M 83.25 41.628906 L 130.210938 41.628906 C 155.480469 41.628906 175.960938 62.113281 175.960938 87.378906 L 175.960938 134.339844 C 175.960938 159.605469 155.480469 180.089844 130.210938 180.089844 L 83.25 180.089844 C 57.984375 180.089844 37.5 159.605469 37.5 134.339844 L 37.5 87.378906 C 37.5 62.113281 57.984375 41.628906 83.25 41.628906 Z M 83.25 41.628906 " clip-rule="nonzero"/></clipPath><clipPath id="652675053d"><path d="M 37.5 41.628906 L 175.957031 41.628906 L 175.957031 180.085938 L 37.5 180.085938 Z M 37.5 41.628906 " clip-rule="nonzero"/></clipPath><clipPath id="0cbb66e71a"><path d="M 83.25 41.628906 L 130.207031 41.628906 C 155.476562 41.628906 175.957031 62.109375 175.957031 87.378906 L 175.957031 134.335938 C 175.957031 159.601562 155.476562 180.085938 130.207031 180.085938 L 83.25 180.085938 C 57.980469 180.085938 37.5 159.601562 37.5 134.335938 L 37.5 87.378906 C 37.5 62.109375 57.980469 41.628906 83.25 41.628906 Z M 83.25 41.628906 " clip-rule="nonzero"/></clipPath><clipPath id="bea4fb9845"><path d="M 199.039062 41.628906 L 337.5 41.628906 L 337.5 180.089844 L 199.039062 180.089844 Z M 199.039062 41.628906 " clip-rule="nonzero"/></clipPath><clipPath id="d935bc9612"><path d="M 244.789062 41.628906 L 291.75 41.628906 C 317.015625 41.628906 337.5 62.113281 337.5 87.378906 L 337.5 134.339844 C 337.5 159.605469 317.015625 180.089844 291.75 180.089844 L 244.789062 180.089844 C 219.519531 180.089844 199.039062 159.605469 199.039062 134.339844 L 199.039062 87.378906 C 199.039062 62.113281 219.519531 41.628906 244.789062 41.628906 Z M 244.789062 41.628906 " clip-rule="nonzero"/></clipPath><clipPath id="17734e6312"><path d="M 199.039062 41.628906 L 337.496094 41.628906 L 337.496094 180.085938 L 199.039062 180.085938 Z M 199.039062 41.628906 " clip-rule="nonzero"/></clipPath><clipPath id="29a1551780"><path d="M 244.785156 41.628906 L 291.746094 41.628906 C 317.011719 41.628906 337.496094 62.109375 337.496094 87.378906 L 337.496094 134.335938 C 337.496094 159.601562 317.011719 180.085938 291.746094 180.085938 L 244.785156 180.085938 C 219.519531 180.085938 199.039062 159.601562 199.039062 134.335938 L 199.039062 87.378906 C 199.039062 62.109375 219.519531 41.628906 244.785156 41.628906 Z M 244.785156 41.628906 " clip-rule="nonzero"/></clipPath><clipPath id="50ad88e49b"><path d="M 37.5 194.910156 L 175.960938 194.910156 L 175.960938 333.371094 L 37.5 333.371094 Z M 37.5 194.910156 " clip-rule="nonzero"/></clipPath><clipPath id="0df4968a15"><path d="M 83.25 194.910156 L 130.210938 194.910156 C 155.480469 194.910156 175.960938 215.394531 175.960938 240.660156 L 175.960938 287.621094 C 175.960938 312.886719 155.480469 333.371094 130.210938 333.371094 L 83.25 333.371094 C 57.984375 333.371094 37.5 312.886719 37.5 287.621094 L 37.5 240.660156 C 37.5 215.394531 57.984375 194.910156 83.25 194.910156 Z M 83.25 194.910156 " clip-rule="nonzero"/></clipPath><clipPath id="b24a4b2e4f"><path d="M 37.5 194.910156 L 175.957031 194.910156 L 175.957031 333.367188 L 37.5 333.367188 Z M 37.5 194.910156 " clip-rule="nonzero"/></clipPath><clipPath id="263f5b74a4"><path d="M 83.25 194.910156 L 130.207031 194.910156 C 155.476562 194.910156 175.957031 215.390625 175.957031 240.65625 L 175.957031 287.617188 C 175.957031 312.882812 155.476562 333.367188 130.207031 333.367188 L 83.25 333.367188 C 57.980469 333.367188 37.5 312.882812 37.5 287.617188 L 37.5 240.65625 C 37.5 215.390625 57.980469 194.910156 83.25 194.910156 Z M 83.25 194.910156 " clip-rule="nonzero"/></clipPath><clipPath id="550cab2f3a"><path d="M 199.039062 194.910156 L 337.5 194.910156 L 337.5 333.371094 L 199.039062 333.371094 Z M 199.039062 194.910156 " clip-rule="nonzero"/></clipPath><clipPath id="e6072c42a2"><path d="M 244.789062 194.910156 L 291.75 194.910156 C 317.015625 194.910156 337.5 215.394531 337.5 240.660156 L 337.5 287.621094 C 337.5 312.886719 317.015625 333.371094 291.75 333.371094 L 244.789062 333.371094 C 219.519531 333.371094 199.039062 312.886719 199.039062 287.621094 L 199.039062 240.660156 C 199.039062 215.394531 219.519531 194.910156 244.789062 194.910156 Z M 244.789062 194.910156 " clip-rule="nonzero"/></clipPath><clipPath id="ca4afeb7a6"><path d="M 199.039062 194.910156 L 337.496094 194.910156 L 337.496094 333.367188 L 199.039062 333.367188 Z M 199.039062 194.910156 " clip-rule="nonzero"/></clipPath><clipPath id="72cc196c19"><path d="M 244.785156 194.910156 L 291.746094 194.910156 C 317.011719 194.910156 337.496094 215.390625 337.496094 240.65625 L 337.496094 287.617188 C 337.496094 312.882812 317.011719 333.367188 291.746094 333.367188 L 244.785156 333.367188 C 219.519531 333.367188 199.039062 312.882812 199.039062 287.617188 L 199.039062 240.65625 C 199.039062 215.390625 219.519531 194.910156 244.785156 194.910156 Z M 244.785156 194.910156 " clip-rule="nonzero"/></clipPath></defs><g clip-path="url(#1d784a1fd9)"><g clip-path="url(#c332c0f998)"><path fill="#ffffff" d="M 37.5 41.628906 L 175.960938 41.628906 L 175.960938 180.089844 L 37.5 180.089844 Z M 37.5 41.628906 " fill-opacity="1" fill-rule="nonzero"/></g></g><g clip-path="url(#652675053d)"><g clip-path="url(#0cbb66e71a)"><path stroke-linecap="butt" transform="matrix(0.75, 0, 0, 0.75, 37.500002, 41.628777)" fill="none" stroke-linejoin="miter" d="M 61.000001 0.000171978 L 123.60938 0.000171978 C 157.302091 0.000171978 184.609384 27.307465 184.609384 61.000176 L 184.609384 123.609555 C 184.609384 157.297057 157.302091 184.609559 123.60938 184.609559 L 61.000001 184.609559 C 27.307291 184.609559 -0.00000271667 157.297057 -0.00000271667 123.609555 L -0.00000271667 61.000176 C -0.00000271667 27.307465 27.307291 0.000171978 61.000001 0.000171978 Z M 61.000001 0.000171978 " stroke="#6f779d" stroke-width="38" stroke-opacity="1" stroke-miterlimit="4"/></g></g><g clip-path="url(#bea4fb9845)"><g clip-path="url(#d935bc9612)"><path fill="#ffffff" d="M 199.039062 41.628906 L 337.5 41.628906 L 337.5 180.089844 L 199.039062 180.089844 Z M 199.039062 41.628906 " fill-opacity="1" fill-rule="nonzero"/></g></g><g clip-path="url(#17734e6312)"><g clip-path="url(#29a1551780)"><path stroke-linecap="butt" transform="matrix(0.75, 0, 0, 0.75, 199.038447, 41.628777)" fill="none" stroke-linejoin="miter" d="M 60.995616 0.000171978 L 123.610203 0.000171978 C 157.297705 0.000171978 184.610207 27.307465 184.610207 61.000176 L 184.610207 123.609555 C 184.610207 157.297057 157.297705 184.609559 123.610203 184.609559 L 60.995616 184.609559 C 27.308114 184.609559 0.000820094 157.297057 0.000820094 123.609555 L 0.000820094 61.000176 C 0.000820094 27.307465 27.308114 0.000171978 60.995616 0.000171978 Z M 60.995616 0.000171978 " stroke="#6f779d" stroke-width="38" stroke-opacity="1" stroke-miterlimit="4"/></g></g><g clip-path="url(#50ad88e49b)"><g clip-path="url(#0df4968a15)"><path fill="#ffffff" d="M 37.5 194.910156 L 175.960938 194.910156 L 175.960938 333.371094 L 37.5 333.371094 Z M 37.5 194.910156 " fill-opacity="1" fill-rule="nonzero"/></g></g><g clip-path="url(#b24a4b2e4f)"><g clip-path="url(#263f5b74a4)"><path stroke-linecap="butt" transform="matrix(0.75, 0, 0, 0.75, 37.500002, 194.909666)" fill="none" stroke-linejoin="miter" d="M 61.000001 0.000654199 L 123.60938 0.000654199 C 157.302091 0.000654199 184.609384 27.307948 184.609384 60.99545 L 184.609384 123.610037 C 184.609384 157.29754 157.302091 184.610041 123.60938 184.610041 L 61.000001 184.610041 C 27.307291 184.610041 -0.00000271667 157.29754 -0.00000271667 123.610037 L -0.00000271667 60.99545 C -0.00000271667 27.307948 27.307291 0.000654199 61.000001 0.000654199 Z M 61.000001 0.000654199 " stroke="#6f779d" stroke-width="38" stroke-opacity="1" stroke-miterlimit="4"/></g></g><g clip-path="url(#550cab2f3a)"><g clip-path="url(#e6072c42a2)"><path fill="#ffffff" d="M 199.039062 194.910156 L 337.5 194.910156 L 337.5 333.371094 L 199.039062 333.371094 Z M 199.039062 194.910156 " fill-opacity="1" fill-rule="nonzero"/></g></g><g clip-path="url(#ca4afeb7a6)"><g clip-path="url(#72cc196c19)"><path stroke-linecap="butt" transform="matrix(0.75, 0, 0, 0.75, 199.038447, 194.909666)" fill="none" stroke-linejoin="miter" d="M 60.995616 0.000654199 L 123.610203 0.000654199 C 157.297705 0.000654199 184.610207 27.307948 184.610207 60.99545 L 184.610207 123.610037 C 184.610207 157.29754 157.297705 184.610041 123.610203 184.610041 L 60.995616 184.610041 C 27.308114 184.610041 0.000820094 157.29754 0.000820094 123.610037 L 0.000820094 60.99545 C 0.000820094 27.307948 27.308114 0.000654199 60.995616 0.000654199 Z M 60.995616 0.000654199 " stroke="#6f779d" stroke-width="38" stroke-opacity="1" stroke-miterlimit="4"/></g></g></svg>