<svg xmlns="http://www.w3.org/2000/svg" xmlns:xlink="http://www.w3.org/1999/xlink" width="500" zoomAndPan="magnify" viewBox="0 0 375 374.999991" height="500" preserveAspectRatio="xMidYMid meet" version="1.0"><defs><clipPath id="d49e0f9790"><path d="M 37.5 37.5 L 337.5 37.5 L 337.5 337.5 L 37.5 337.5 Z M 37.5 37.5 " clip-rule="nonzero"/></clipPath></defs><g clip-path="url(#d49e0f9790)"><path fill="#6f779d" d="M 313.96875 61.03125 L 313.96875 58.089844 C 313.96875 46.734375 304.734375 37.5 293.382812 37.5 C 282.03125 37.5 272.792969 46.734375 272.792969 58.089844 L 272.792969 61.03125 L 261.03125 61.03125 L 261.03125 58.089844 C 261.03125 46.734375 251.792969 37.5 240.441406 37.5 C 229.089844 37.5 219.851562 46.734375 219.851562 58.089844 L 219.851562 61.03125 L 208.089844 61.03125 L 208.089844 58.089844 C 208.089844 46.734375 198.851562 37.5 187.5 37.5 C 176.148438 37.5 166.910156 46.734375 166.910156 58.089844 L 166.910156 61.03125 L 155.148438 61.03125 L 155.148438 58.089844 C 155.148438 46.734375 145.910156 37.5 134.558594 37.5 C 123.207031 37.5 113.96875 46.734375 113.96875 58.089844 L 113.96875 61.03125 L 102.207031 61.03125 L 102.207031 58.089844 C 102.207031 46.734375 92.96875 37.5 81.617188 37.5 C 70.265625 37.5 61.03125 46.734375 61.03125 58.089844 L 61.03125 61.03125 C 48.054688 61.03125 37.5 71.585938 37.5 84.558594 L 37.5 313.96875 C 37.5 326.945312 48.054688 337.5 61.03125 337.5 L 313.96875 337.5 C 326.945312 337.5 337.5 326.945312 337.5 313.96875 L 337.5 84.558594 C 337.5 71.585938 326.945312 61.03125 313.96875 61.03125 Z M 284.558594 58.089844 C 284.558594 53.222656 288.515625 49.265625 293.382812 49.265625 C 298.25 49.265625 302.207031 53.222656 302.207031 58.089844 L 302.207031 75.734375 C 302.207031 80.601562 298.25 84.558594 293.382812 84.558594 C 288.515625 84.558594 284.558594 80.601562 284.558594 75.734375 Z M 231.617188 58.089844 C 231.617188 53.222656 235.574219 49.265625 240.441406 49.265625 C 245.308594 49.265625 249.265625 53.222656 249.265625 58.089844 L 249.265625 75.734375 C 249.265625 80.601562 245.308594 84.558594 240.441406 84.558594 C 235.574219 84.558594 231.617188 80.601562 231.617188 75.734375 Z M 178.675781 58.089844 C 178.675781 53.222656 182.632812 49.265625 187.5 49.265625 C 192.367188 49.265625 196.324219 53.222656 196.324219 58.089844 L 196.324219 75.734375 C 196.324219 80.601562 192.367188 84.558594 187.5 84.558594 C 182.632812 84.558594 178.675781 80.601562 178.675781 75.734375 Z M 125.734375 58.089844 C 125.734375 53.222656 129.695312 49.265625 134.558594 49.265625 C 139.425781 49.265625 143.382812 53.222656 143.382812 58.089844 L 143.382812 75.734375 C 143.382812 80.601562 139.425781 84.558594 134.558594 84.558594 C 129.695312 84.558594 125.734375 80.601562 125.734375 75.734375 Z M 72.792969 58.089844 C 72.792969 53.222656 76.753906 49.265625 81.617188 49.265625 C 86.484375 49.265625 90.441406 53.222656 90.441406 58.089844 L 90.441406 75.734375 C 90.441406 80.601562 86.484375 84.558594 81.617188 84.558594 C 76.753906 84.558594 72.792969 80.601562 72.792969 75.734375 Z M 61.03125 72.792969 L 61.03125 75.734375 C 61.03125 87.085938 70.265625 96.324219 81.617188 96.324219 C 92.96875 96.324219 102.207031 87.085938 102.207031 75.734375 L 102.207031 72.792969 L 113.96875 72.792969 L 113.96875 75.734375 C 113.96875 87.085938 123.207031 96.324219 134.558594 96.324219 C 145.910156 96.324219 155.148438 87.085938 155.148438 75.734375 L 155.148438 72.792969 L 166.910156 72.792969 L 166.910156 75.734375 C 166.910156 87.085938 176.148438 96.324219 187.5 96.324219 C 198.851562 96.324219 208.089844 87.085938 208.089844 75.734375 L 208.089844 72.792969 L 219.851562 72.792969 L 219.851562 75.734375 C 219.851562 87.085938 229.089844 96.324219 240.441406 96.324219 C 251.792969 96.324219 261.03125 87.085938 261.03125 75.734375 L 261.03125 72.792969 L 272.792969 72.792969 L 272.792969 75.734375 C 272.792969 87.085938 282.03125 96.324219 293.382812 96.324219 C 304.734375 96.324219 313.96875 87.085938 313.96875 75.734375 L 313.96875 72.792969 C 320.457031 72.792969 325.734375 78.070312 325.734375 84.558594 L 325.734375 108.089844 C 315.828125 108.089844 58.6875 108.089844 49.265625 108.089844 L 49.265625 84.558594 C 49.265625 78.070312 54.542969 72.792969 61.03125 72.792969 Z M 72.792969 119.851562 L 302.207031 119.851562 L 302.207031 302.207031 L 72.792969 302.207031 Z M 313.96875 325.734375 L 61.03125 325.734375 C 54.542969 325.734375 49.265625 320.457031 49.265625 313.96875 L 49.265625 119.851562 L 61.03125 119.851562 L 61.03125 308.089844 C 61.03125 311.335938 63.664062 313.96875 66.910156 313.96875 L 308.089844 313.96875 C 311.335938 313.96875 313.96875 311.335938 313.96875 308.089844 L 313.96875 119.851562 L 325.734375 119.851562 L 325.734375 313.96875 C 325.734375 320.457031 320.457031 325.734375 313.96875 325.734375 Z M 313.96875 325.734375 " fill-opacity="1" fill-rule="nonzero"/></g><path fill="#6f779d" d="M 119.851562 146.324219 L 96.324219 146.324219 C 93.074219 146.324219 90.441406 148.957031 90.441406 152.207031 L 90.441406 175.734375 C 90.441406 178.984375 93.074219 181.617188 96.324219 181.617188 L 119.851562 181.617188 C 123.101562 181.617188 125.734375 178.984375 125.734375 175.734375 L 125.734375 152.207031 C 125.734375 148.957031 123.101562 146.324219 119.851562 146.324219 Z M 113.96875 169.851562 L 102.207031 169.851562 L 102.207031 158.089844 L 113.96875 158.089844 Z M 113.96875 169.851562 " fill-opacity="1" fill-rule="nonzero"/><path fill="#6f779d" d="M 172.792969 146.324219 L 149.265625 146.324219 C 146.015625 146.324219 143.382812 148.957031 143.382812 152.207031 L 143.382812 175.734375 C 143.382812 178.984375 146.015625 181.617188 149.265625 181.617188 L 172.792969 181.617188 C 176.042969 181.617188 178.675781 178.984375 178.675781 175.734375 L 178.675781 152.207031 C 178.675781 148.957031 176.042969 146.324219 172.792969 146.324219 Z M 166.910156 169.851562 L 155.148438 169.851562 L 155.148438 158.089844 L 166.910156 158.089844 Z M 166.910156 169.851562 " fill-opacity="1" fill-rule="nonzero"/><path fill="#6f779d" d="M 225.734375 146.324219 L 202.207031 146.324219 C 198.957031 146.324219 196.324219 148.957031 196.324219 152.207031 L 196.324219 175.734375 C 196.324219 178.984375 198.957031 181.617188 202.207031 181.617188 L 225.734375 181.617188 C 228.984375 181.617188 231.617188 178.984375 231.617188 175.734375 L 231.617188 152.207031 C 231.617188 148.957031 228.984375 146.324219 225.734375 146.324219 Z M 219.851562 169.851562 L 208.089844 169.851562 L 208.089844 158.089844 L 219.851562 158.089844 Z M 219.851562 169.851562 " fill-opacity="1" fill-rule="nonzero"/><path fill="#6f779d" d="M 278.675781 146.324219 L 255.148438 146.324219 C 251.898438 146.324219 249.265625 148.957031 249.265625 152.207031 L 249.265625 175.734375 C 249.265625 178.984375 251.898438 181.617188 255.148438 181.617188 L 278.675781 181.617188 C 281.925781 181.617188 284.558594 178.984375 284.558594 175.734375 L 284.558594 152.207031 C 284.558594 148.957031 281.925781 146.324219 278.675781 146.324219 Z M 272.792969 169.851562 L 261.03125 169.851562 L 261.03125 158.089844 L 272.792969 158.089844 Z M 272.792969 169.851562 " fill-opacity="1" fill-rule="nonzero"/><path fill="#6f779d" d="M 119.851562 193.382812 L 96.324219 193.382812 C 93.074219 193.382812 90.441406 196.015625 90.441406 199.265625 L 90.441406 222.792969 C 90.441406 226.042969 93.074219 228.675781 96.324219 228.675781 L 119.851562 228.675781 C 123.101562 228.675781 125.734375 226.042969 125.734375 222.792969 L 125.734375 199.265625 C 125.734375 196.015625 123.101562 193.382812 119.851562 193.382812 Z M 113.96875 216.910156 L 102.207031 216.910156 L 102.207031 205.148438 L 113.96875 205.148438 Z M 113.96875 216.910156 " fill-opacity="1" fill-rule="nonzero"/><path fill="#6f779d" d="M 172.792969 193.382812 L 149.265625 193.382812 C 146.015625 193.382812 143.382812 196.015625 143.382812 199.265625 L 143.382812 222.792969 C 143.382812 226.042969 146.015625 228.675781 149.265625 228.675781 L 172.792969 228.675781 C 176.042969 228.675781 178.675781 226.042969 178.675781 222.792969 L 178.675781 199.265625 C 178.675781 196.015625 176.042969 193.382812 172.792969 193.382812 Z M 166.910156 216.910156 L 155.148438 216.910156 L 155.148438 205.148438 L 166.910156 205.148438 Z M 166.910156 216.910156 " fill-opacity="1" fill-rule="nonzero"/><path fill="#6f779d" d="M 225.734375 193.382812 L 202.207031 193.382812 C 198.957031 193.382812 196.324219 196.015625 196.324219 199.265625 L 196.324219 222.792969 C 196.324219 226.042969 198.957031 228.675781 202.207031 228.675781 L 225.734375 228.675781 C 228.984375 228.675781 231.617188 226.042969 231.617188 222.792969 L 231.617188 199.265625 C 231.617188 196.015625 228.984375 193.382812 225.734375 193.382812 Z M 219.851562 216.910156 L 208.089844 216.910156 L 208.089844 205.148438 L 219.851562 205.148438 Z M 219.851562 216.910156 " fill-opacity="1" fill-rule="nonzero"/><path fill="#6f779d" d="M 278.675781 193.382812 L 255.148438 193.382812 C 251.898438 193.382812 249.265625 196.015625 249.265625 199.265625 L 249.265625 222.792969 C 249.265625 226.042969 251.898438 228.675781 255.148438 228.675781 L 278.675781 228.675781 C 281.925781 228.675781 284.558594 226.042969 284.558594 222.792969 L 284.558594 199.265625 C 284.558594 196.015625 281.925781 193.382812 278.675781 193.382812 Z M 272.792969 216.910156 L 261.03125 216.910156 L 261.03125 205.148438 L 272.792969 205.148438 Z M 272.792969 216.910156 " fill-opacity="1" fill-rule="nonzero"/><path fill="#6f779d" d="M 119.851562 240.441406 L 96.324219 240.441406 C 93.074219 240.441406 90.441406 243.074219 90.441406 246.324219 L 90.441406 269.851562 C 90.441406 273.101562 93.074219 275.734375 96.324219 275.734375 L 119.851562 275.734375 C 123.101562 275.734375 125.734375 273.101562 125.734375 269.851562 L 125.734375 246.324219 C 125.734375 243.074219 123.101562 240.441406 119.851562 240.441406 Z M 113.96875 263.96875 L 102.207031 263.96875 L 102.207031 252.207031 L 113.96875 252.207031 Z M 113.96875 263.96875 " fill-opacity="1" fill-rule="nonzero"/><path fill="#6f779d" d="M 172.792969 240.441406 L 149.265625 240.441406 C 146.015625 240.441406 143.382812 243.074219 143.382812 246.324219 L 143.382812 269.851562 C 143.382812 273.101562 146.015625 275.734375 149.265625 275.734375 L 172.792969 275.734375 C 176.042969 275.734375 178.675781 273.101562 178.675781 269.851562 L 178.675781 246.324219 C 178.675781 243.074219 176.042969 240.441406 172.792969 240.441406 Z M 166.910156 263.96875 L 155.148438 263.96875 L 155.148438 252.207031 L 166.910156 252.207031 Z M 166.910156 263.96875 " fill-opacity="1" fill-rule="nonzero"/><path fill="#6f779d" d="M 225.734375 240.441406 L 202.207031 240.441406 C 198.957031 240.441406 196.324219 243.074219 196.324219 246.324219 L 196.324219 269.851562 C 196.324219 273.101562 198.957031 275.734375 202.207031 275.734375 L 225.734375 275.734375 C 228.984375 275.734375 231.617188 273.101562 231.617188 269.851562 L 231.617188 246.324219 C 231.617188 243.074219 228.984375 240.441406 225.734375 240.441406 Z M 219.851562 263.96875 L 208.089844 263.96875 L 208.089844 252.207031 L 219.851562 252.207031 Z M 219.851562 263.96875 " fill-opacity="1" fill-rule="nonzero"/><path fill="#6f779d" d="M 278.675781 240.441406 L 255.148438 240.441406 C 251.898438 240.441406 249.265625 243.074219 249.265625 246.324219 L 249.265625 269.851562 C 249.265625 273.101562 251.898438 275.734375 255.148438 275.734375 L 278.675781 275.734375 C 281.925781 275.734375 284.558594 273.101562 284.558594 269.851562 L 284.558594 246.324219 C 284.558594 243.074219 281.925781 240.441406 278.675781 240.441406 Z M 272.792969 263.96875 L 261.03125 263.96875 L 261.03125 252.207031 L 272.792969 252.207031 Z M 272.792969 263.96875 " fill-opacity="1" fill-rule="nonzero"/></svg>