<svg xmlns="http://www.w3.org/2000/svg" xmlns:xlink="http://www.w3.org/1999/xlink" width="500" zoomAndPan="magnify" viewBox="0 0 375 374.999991" height="500" preserveAspectRatio="xMidYMid meet" version="1.0"><defs><clipPath id="a8a4464f20"><path d="M 73.5 37.5 L 301.5 37.5 L 301.5 337.5 L 73.5 337.5 Z M 73.5 37.5 " clip-rule="nonzero"/></clipPath></defs><g clip-path="url(#a8a4464f20)"><path fill="#6f779d" d="M 296.671875 71.234375 L 252.636719 71.234375 L 252.636719 63.109375 C 252.636719 60.4375 250.472656 58.273438 247.800781 58.273438 L 218.335938 58.273438 C 216.042969 52.703125 212.28125 47.875 207.535156 44.289062 C 201.949219 40.0625 195.003906 37.550781 187.5 37.550781 C 180.003906 37.550781 173.050781 40.0625 167.464844 44.289062 C 162.726562 47.875 158.964844 52.703125 156.671875 58.273438 L 127.203125 58.273438 C 124.535156 58.273438 122.367188 60.4375 122.367188 63.109375 L 122.367188 71.226562 L 78.335938 71.226562 C 75.667969 71.234375 73.5 73.402344 73.5 76.070312 L 73.5 332.613281 C 73.5 335.285156 75.667969 337.449219 78.335938 337.449219 L 296.671875 337.449219 C 299.339844 337.449219 301.507812 335.285156 301.507812 332.613281 L 301.507812 76.070312 C 301.507812 73.402344 299.339844 71.234375 296.671875 71.234375 Z M 173.285156 51.996094 C 177.242188 49.003906 182.175781 47.222656 187.507812 47.222656 C 192.839844 47.222656 197.765625 49.003906 201.722656 51.996094 C 204.007812 53.722656 205.972656 55.859375 207.511719 58.28125 L 167.496094 58.28125 C 169.035156 55.851562 170.996094 53.722656 173.285156 51.996094 Z M 132.035156 67.945312 L 242.964844 67.945312 L 242.964844 84.183594 L 132.035156 84.183594 Z M 291.835938 327.777344 L 83.171875 327.777344 L 83.171875 80.90625 L 122.367188 80.90625 L 122.367188 89.027344 C 122.367188 91.695312 124.535156 93.863281 127.203125 93.863281 L 247.808594 93.863281 C 250.480469 93.863281 252.644531 91.695312 252.644531 89.027344 L 252.644531 80.90625 L 291.84375 80.90625 L 291.84375 327.777344 Z M 130.089844 154.472656 C 128.1875 152.628906 128.132812 149.585938 129.980469 147.671875 C 131.824219 145.769531 134.867188 145.714844 136.777344 147.5625 L 137.957031 148.699219 L 150.335938 135.910156 C 152.195312 134.003906 155.246094 133.960938 157.148438 135.820312 C 159.054688 137.679688 159.097656 140.730469 157.238281 142.636719 L 141.523438 158.875 C 139.664062 160.777344 136.613281 160.824219 134.710938 158.964844 Z M 165.808594 120.351562 L 121.417969 120.351562 C 118.746094 120.351562 116.582031 122.519531 116.582031 125.1875 L 116.582031 169.582031 C 116.582031 172.25 118.746094 174.417969 121.417969 174.417969 L 165.808594 174.417969 C 168.480469 174.417969 170.644531 172.25 170.644531 169.582031 L 170.644531 125.1875 C 170.644531 122.519531 168.480469 120.351562 165.808594 120.351562 Z M 160.972656 164.753906 L 126.253906 164.753906 L 126.253906 130.03125 L 160.972656 130.03125 Z M 185.835938 120.351562 L 253.597656 120.351562 C 256.265625 120.351562 258.433594 122.519531 258.433594 125.1875 C 258.433594 127.855469 256.265625 130.023438 253.597656 130.023438 L 185.835938 130.023438 C 183.167969 130.023438 181 127.855469 181 125.1875 C 181 122.519531 183.160156 120.351562 185.835938 120.351562 Z M 181 147.386719 C 181 144.71875 183.167969 142.550781 185.835938 142.550781 L 238.574219 142.550781 C 241.242188 142.550781 243.410156 144.71875 243.410156 147.386719 C 243.410156 150.058594 241.242188 152.222656 238.574219 152.222656 L 185.835938 152.222656 C 183.160156 152.222656 181 150.058594 181 147.386719 Z M 130.089844 278.625 C 128.1875 276.78125 128.132812 273.738281 129.980469 271.824219 C 131.824219 269.921875 134.867188 269.867188 136.777344 271.710938 L 137.957031 272.851562 L 150.335938 260.0625 C 152.195312 258.15625 155.246094 258.113281 157.148438 259.972656 C 159.054688 261.832031 159.097656 264.882812 157.238281 266.785156 L 141.523438 283.027344 C 139.664062 284.929688 136.613281 284.976562 134.710938 283.117188 Z M 165.808594 244.503906 L 121.417969 244.503906 C 118.746094 244.503906 116.582031 246.671875 116.582031 249.339844 L 116.582031 293.734375 C 116.582031 296.402344 118.746094 298.570312 121.417969 298.570312 L 165.808594 298.570312 C 168.480469 298.570312 170.644531 296.402344 170.644531 293.734375 L 170.644531 249.339844 C 170.644531 246.671875 168.480469 244.503906 165.808594 244.503906 Z M 160.972656 288.898438 L 126.253906 288.898438 L 126.253906 254.175781 L 160.972656 254.175781 Z M 258.425781 249.339844 C 258.425781 252.007812 256.261719 254.175781 253.589844 254.175781 L 185.828125 254.175781 C 183.160156 254.175781 180.992188 252.007812 180.992188 249.339844 C 180.992188 246.671875 183.160156 244.503906 185.828125 244.503906 L 253.589844 244.503906 C 256.265625 244.503906 258.425781 246.671875 258.425781 249.339844 Z M 243.402344 271.539062 C 243.402344 274.207031 241.234375 276.375 238.566406 276.375 L 185.828125 276.375 C 183.160156 276.375 180.992188 274.207031 180.992188 271.539062 C 180.992188 268.871094 183.160156 266.703125 185.828125 266.703125 L 238.566406 266.703125 C 241.242188 266.703125 243.402344 268.871094 243.402344 271.539062 Z M 130.089844 216.546875 C 128.1875 214.699219 128.132812 211.65625 129.980469 209.746094 C 131.824219 207.839844 134.867188 207.789062 136.777344 209.632812 L 137.957031 210.773438 L 150.335938 197.980469 C 152.195312 196.078125 155.246094 196.03125 157.148438 197.890625 C 159.054688 199.75 159.097656 202.800781 157.238281 204.707031 L 141.523438 220.945312 C 139.664062 222.851562 136.613281 222.894531 134.710938 221.035156 Z M 165.808594 182.433594 L 121.417969 182.433594 C 118.746094 182.433594 116.582031 184.597656 116.582031 187.265625 L 116.582031 231.660156 C 116.582031 234.328125 118.746094 236.496094 121.417969 236.496094 L 165.808594 236.496094 C 168.480469 236.496094 170.644531 234.328125 170.644531 231.660156 L 170.644531 187.265625 C 170.644531 184.597656 168.480469 182.433594 165.808594 182.433594 Z M 160.972656 226.824219 L 126.253906 226.824219 L 126.253906 192.101562 L 160.972656 192.101562 Z M 258.425781 187.265625 C 258.425781 189.9375 256.261719 192.101562 253.589844 192.101562 L 185.828125 192.101562 C 183.160156 192.101562 180.992188 189.9375 180.992188 187.265625 C 180.992188 184.597656 183.160156 182.433594 185.828125 182.433594 L 253.589844 182.433594 C 256.265625 182.433594 258.425781 184.597656 258.425781 187.265625 Z M 181 209.460938 C 181 206.792969 183.167969 204.625 185.835938 204.625 L 238.574219 204.625 C 241.242188 204.625 243.410156 206.792969 243.410156 209.460938 C 243.410156 212.128906 241.242188 214.296875 238.574219 214.296875 L 185.835938 214.296875 C 183.160156 214.296875 181 212.136719 181 209.460938 Z M 181 209.460938 " fill-opacity="1" fill-rule="nonzero"/></g></svg>