<svg xmlns="http://www.w3.org/2000/svg" xmlns:xlink="http://www.w3.org/1999/xlink" width="500" zoomAndPan="magnify" viewBox="0 0 375 374.999991" height="500" preserveAspectRatio="xMidYMid meet" version="1.0"><defs><clipPath id="1f97a51a8f"><path d="M 63.953125 37.5 L 310.703125 37.5 L 310.703125 337.5 L 63.953125 337.5 Z M 63.953125 37.5 " clip-rule="nonzero"/></clipPath></defs><g clip-path="url(#1f97a51a8f)"><path fill="#6f779d" d="M 288.152344 142.433594 L 291.488281 139.097656 C 299.511719 131.070312 299.511719 118.011719 291.484375 109.984375 C 283.460938 101.957031 270.398438 101.957031 262.371094 109.980469 L 259.035156 113.316406 C 240.332031 99.984375 217.769531 91.734375 193.382812 90.585938 L 193.382812 72.792969 L 205.148438 72.792969 C 214.878906 72.792969 222.792969 64.878906 222.792969 55.148438 C 222.792969 45.417969 214.878906 37.5 205.148438 37.5 L 169.851562 37.5 C 160.121094 37.5 152.207031 45.417969 152.207031 55.148438 C 152.207031 64.878906 160.121094 72.792969 169.851562 72.792969 L 181.617188 72.792969 L 181.617188 90.585938 C 116.222656 93.664062 63.96875 147.828125 63.96875 213.96875 C 63.96875 282.085938 119.386719 337.5 187.5 337.5 C 255.613281 337.5 311.027344 282.085938 311.027344 213.96875 C 311.027344 187.332031 302.550781 162.632812 288.152344 142.433594 Z M 163.96875 55.148438 C 163.96875 51.902344 166.609375 49.265625 169.851562 49.265625 L 205.148438 49.265625 C 208.390625 49.265625 211.027344 51.902344 211.027344 55.148438 C 211.027344 58.390625 208.390625 61.03125 205.148438 61.03125 L 169.851562 61.03125 C 166.609375 61.03125 163.96875 58.390625 163.96875 55.148438 Z M 270.6875 118.304688 C 274.128906 114.863281 279.726562 114.863281 283.167969 118.304688 C 286.605469 121.742188 286.605469 127.339844 283.167969 130.78125 L 280.824219 133.125 C 276.964844 128.675781 272.792969 124.503906 268.347656 120.644531 Z M 187.5 325.734375 C 125.871094 325.734375 75.734375 275.597656 75.734375 213.96875 C 75.734375 152.34375 125.871094 102.207031 187.5 102.207031 C 249.128906 102.207031 299.265625 152.34375 299.265625 213.96875 C 299.265625 275.597656 249.128906 325.734375 187.5 325.734375 Z M 187.5 325.734375 " fill-opacity="1" fill-rule="nonzero"/></g><path fill="#6f779d" d="M 187.5 119.851562 C 135.632812 119.851562 93.382812 162.0625 93.382812 213.96875 C 93.382812 265.84375 135.597656 308.089844 187.5 308.089844 C 239.371094 308.089844 281.617188 265.871094 281.617188 213.96875 C 281.617188 162.105469 239.40625 119.851562 187.5 119.851562 Z M 263.96875 219.851562 L 269.640625 219.851562 C 268.34375 238.140625 261.050781 254.800781 249.714844 267.867188 L 245.730469 263.882812 C 243.433594 261.585938 239.710938 261.585938 237.414062 263.882812 C 235.117188 266.179688 235.117188 269.90625 237.414062 272.203125 L 241.398438 276.1875 C 228.332031 287.523438 211.671875 294.8125 193.382812 296.109375 L 193.382812 290.441406 C 193.382812 287.191406 190.746094 284.558594 187.5 284.558594 C 184.25 284.558594 181.617188 287.191406 181.617188 290.441406 L 181.617188 296.109375 C 163.328125 294.8125 146.667969 287.523438 133.601562 276.1875 L 137.585938 272.203125 C 139.882812 269.90625 139.882812 266.179688 137.585938 263.882812 C 135.289062 261.585938 131.566406 261.585938 129.265625 263.882812 L 125.28125 267.867188 C 113.949219 254.800781 106.65625 238.140625 105.359375 219.851562 L 111.027344 219.851562 C 114.277344 219.851562 116.910156 217.21875 116.910156 213.96875 C 116.910156 210.722656 114.277344 208.089844 111.027344 208.089844 L 105.359375 208.089844 C 106.65625 189.796875 113.949219 173.140625 125.28125 160.074219 L 129.265625 164.058594 C 131.566406 166.355469 135.289062 166.355469 137.585938 164.058594 C 139.882812 161.761719 139.882812 158.035156 137.585938 155.738281 L 133.601562 151.753906 C 146.667969 140.421875 163.328125 133.128906 181.617188 131.832031 L 181.617188 137.5 C 181.617188 140.75 184.25 143.382812 187.5 143.382812 C 190.746094 143.382812 193.382812 140.75 193.382812 137.5 L 193.382812 131.828125 C 211.671875 133.128906 228.332031 140.417969 241.398438 151.753906 L 237.414062 155.738281 C 235.117188 158.035156 235.117188 161.757812 237.414062 164.054688 C 239.710938 166.351562 243.433594 166.355469 245.730469 164.058594 L 249.714844 160.074219 C 261.050781 173.136719 268.34375 189.796875 269.640625 208.085938 L 263.96875 208.085938 C 260.722656 208.085938 258.085938 210.722656 258.085938 213.96875 C 258.085938 217.21875 260.722656 219.851562 263.96875 219.851562 Z M 263.96875 219.851562 " fill-opacity="1" fill-rule="nonzero"/><path fill="#6f779d" d="M 193.382812 197.335938 L 193.382812 161.03125 C 193.382812 157.78125 190.746094 155.148438 187.5 155.148438 C 184.25 155.148438 181.617188 157.78125 181.617188 161.03125 L 181.617188 197.335938 C 174.769531 199.761719 169.851562 206.300781 169.851562 213.96875 C 169.851562 223.699219 177.769531 231.617188 187.5 231.617188 C 197.230469 231.617188 205.148438 223.699219 205.148438 213.96875 C 205.148438 206.300781 200.226562 199.761719 193.382812 197.335938 Z M 187.5 219.851562 C 184.257812 219.851562 181.617188 217.214844 181.617188 213.96875 C 181.617188 210.726562 184.257812 208.089844 187.5 208.089844 C 190.742188 208.089844 193.382812 210.726562 193.382812 213.96875 C 193.382812 217.214844 190.742188 219.851562 187.5 219.851562 Z M 187.5 219.851562 " fill-opacity="1" fill-rule="nonzero"/></svg>