<svg xmlns="http://www.w3.org/2000/svg" xmlns:xlink="http://www.w3.org/1999/xlink" width="500" zoomAndPan="magnify" viewBox="0 0 375 374.999991" height="500" preserveAspectRatio="xMidYMid meet" version="1.0"><defs><clipPath id="519987729a"><path d="M 37.5 37.5 L 337.5 37.5 L 337.5 337.5 L 37.5 337.5 Z M 37.5 37.5 " clip-rule="nonzero"/></clipPath><clipPath id="cc6cf2b5b7"><path d="M 112.5 37.5 L 262.5 37.5 C 303.921875 37.5 337.5 71.078125 337.5 112.5 L 337.5 262.5 C 337.5 303.921875 303.921875 337.5 262.5 337.5 L 112.5 337.5 C 71.078125 337.5 37.5 303.921875 37.5 262.5 L 37.5 112.5 C 37.5 71.078125 71.078125 37.5 112.5 37.5 Z M 112.5 37.5 " clip-rule="nonzero"/></clipPath><clipPath id="86045815cc"><path d="M 97.429688 198 L 138 198 L 138 270 L 97.429688 270 Z M 97.429688 198 " clip-rule="nonzero"/></clipPath><clipPath id="ffbcb1ed69"><path d="M 237 105.125 L 277.429688 105.125 L 277.429688 270 L 237 270 Z M 237 105.125 " clip-rule="nonzero"/></clipPath></defs><g clip-path="url(#519987729a)"><g clip-path="url(#cc6cf2b5b7)"><path fill="#ffffff" d="M 37.5 37.5 L 337.5 37.5 L 337.5 337.5 L 37.5 337.5 Z M 37.5 37.5 " fill-opacity="1" fill-rule="nonzero"/><path stroke-linecap="butt" transform="matrix(0.75, 0, 0, 0.75, 37.500002, 37.499998)" fill="none" stroke-linejoin="miter" d="M 100.000004 0.00000328333 L 300.000017 0.00000328333 C 355.229187 0.00000328333 400.000024 44.77084 400.000024 100.00001 L 400.000024 300.000023 C 400.000024 355.229193 355.229187 400.00003 300.000017 400.00003 L 100.000004 400.00003 C 44.770834 400.00003 -0.00000271667 355.229193 -0.00000271667 300.000023 L -0.00000271667 100.00001 C -0.00000271667 44.77084 44.770834 0.00000328333 100.000004 0.00000328333 Z M 100.000004 0.00000328333 " stroke="#6f779d" stroke-width="38" stroke-opacity="1" stroke-miterlimit="4"/></g></g><path fill="#6f779d" d="M 204.5625 151.664062 L 170.433594 151.664062 C 168.574219 151.664062 167.332031 152.902344 167.332031 154.765625 L 167.332031 266.453125 C 167.332031 268.316406 168.574219 269.558594 170.433594 269.558594 L 204.5625 269.558594 C 206.421875 269.558594 207.664062 268.316406 207.664062 266.453125 L 207.664062 154.765625 C 207.664062 152.902344 206.421875 151.664062 204.5625 151.664062 Z M 204.5625 151.664062 " fill-opacity="1" fill-rule="nonzero"/><g clip-path="url(#86045815cc)"><path fill="#6f779d" d="M 134.757812 198.199219 L 100.628906 198.199219 C 98.765625 198.199219 97.527344 199.441406 97.527344 201.300781 L 97.527344 266.453125 C 97.527344 268.316406 98.765625 269.558594 100.628906 269.558594 L 134.757812 269.558594 C 136.617188 269.558594 137.859375 268.316406 137.859375 266.453125 L 137.859375 201.300781 C 137.859375 199.441406 136.617188 198.199219 134.757812 198.199219 Z M 134.757812 198.199219 " fill-opacity="1" fill-rule="nonzero"/></g><g clip-path="url(#ffbcb1ed69)"><path fill="#6f779d" d="M 274.367188 105.125 L 240.242188 105.125 C 238.378906 105.125 237.136719 106.367188 237.136719 108.226562 L 237.136719 266.765625 C 237.136719 268.625 238.378906 269.867188 240.242188 269.867188 L 274.367188 269.867188 C 276.230469 269.867188 277.46875 268.625 277.46875 266.765625 L 277.46875 108.226562 C 277.46875 106.367188 276.230469 105.125 274.367188 105.125 Z M 274.367188 105.125 " fill-opacity="1" fill-rule="nonzero"/></g></svg>