<svg xmlns="http://www.w3.org/2000/svg" xmlns:xlink="http://www.w3.org/1999/xlink" width="500" zoomAndPan="magnify" viewBox="0 0 375 374.999991" height="500" preserveAspectRatio="xMidYMid meet" version="1.0"><defs><clipPath id="72e494fa1b"><path d="M 37.5 37.5 L 337.5 37.5 L 337.5 337.5 L 37.5 337.5 Z M 37.5 37.5 " clip-rule="nonzero"/></clipPath><clipPath id="423274b183"><path d="M 112.5 37.5 L 262.5 37.5 C 303.921875 37.5 337.5 71.078125 337.5 112.5 L 337.5 262.5 C 337.5 303.921875 303.921875 337.5 262.5 337.5 L 112.5 337.5 C 71.078125 337.5 37.5 303.921875 37.5 262.5 L 37.5 112.5 C 37.5 71.078125 71.078125 37.5 112.5 37.5 Z M 112.5 37.5 " clip-rule="nonzero"/></clipPath><clipPath id="0911fb20cd"><path d="M 121.152344 105.125 L 253.902344 105.125 L 253.902344 270 L 121.152344 270 Z M 121.152344 105.125 " clip-rule="nonzero"/></clipPath></defs><g clip-path="url(#72e494fa1b)"><g clip-path="url(#423274b183)"><path fill="#ffffff" d="M 37.5 37.5 L 337.5 37.5 L 337.5 337.5 L 37.5 337.5 Z M 37.5 37.5 " fill-opacity="1" fill-rule="nonzero"/><path stroke-linecap="butt" transform="matrix(0.75, 0, 0, 0.75, 37.500002, 37.499998)" fill="none" stroke-linejoin="miter" d="M 100.000004 0.00000328333 L 300.000017 0.00000328333 C 355.229187 0.00000328333 400.000024 44.77084 400.000024 100.00001 L 400.000024 300.000023 C 400.000024 355.229193 355.229187 400.00003 300.000017 400.00003 L 100.000004 400.00003 C 44.770834 400.00003 -0.00000271667 355.229193 -0.00000271667 300.000023 L -0.00000271667 100.00001 C -0.00000271667 44.77084 44.770834 0.00000328333 100.000004 0.00000328333 Z M 100.000004 0.00000328333 " stroke="#6f779d" stroke-width="38" stroke-opacity="1" stroke-miterlimit="4"/></g></g><g clip-path="url(#0911fb20cd)"><path fill="#6f779d" d="M 211.164062 186.195312 C 223.355469 178.375 231.464844 164.726562 231.464844 149.203125 C 231.464844 124.960938 211.738281 105.234375 187.496094 105.234375 C 163.253906 105.234375 143.527344 124.960938 143.527344 149.203125 C 143.527344 164.734375 151.636719 178.375 163.828125 186.195312 C 138.902344 195.753906 121.152344 219.917969 121.152344 248.164062 C 121.152344 260.070312 130.839844 269.761719 142.746094 269.761719 L 232.238281 269.761719 C 244.152344 269.761719 253.832031 260.070312 253.832031 248.164062 C 253.84375 219.917969 236.089844 195.753906 211.164062 186.195312 Z M 154.878906 149.203125 C 154.878906 131.21875 169.511719 116.585938 187.496094 116.585938 C 205.480469 116.585938 220.113281 131.21875 220.113281 149.203125 C 220.113281 167.183594 205.480469 181.820312 187.496094 181.820312 C 169.511719 181.820312 154.878906 167.183594 154.878906 149.203125 Z M 232.246094 258.40625 L 142.746094 258.40625 C 137.09375 258.40625 132.503906 253.808594 132.503906 248.164062 C 132.503906 217.84375 157.175781 193.171875 187.496094 193.171875 C 217.820312 193.171875 242.488281 217.84375 242.488281 248.164062 C 242.480469 253.808594 237.890625 258.40625 232.246094 258.40625 Z M 232.246094 258.40625 " fill-opacity="1" fill-rule="nonzero"/></g></svg>