<svg xmlns="http://www.w3.org/2000/svg" xmlns:xlink="http://www.w3.org/1999/xlink" width="500" zoomAndPan="magnify" viewBox="0 0 375 374.999991" height="500" preserveAspectRatio="xMidYMid meet" version="1.0"><path fill="#6f779d" d="M 306.949219 210.894531 L 177.867188 285.207031 L 96.675781 331.71875 C 86.214844 337.773438 73.003906 336.125 64.472656 327.316406 C 55.941406 318.507812 54.289062 305.574219 60.621094 294.839844 L 116.214844 201.535156 C 121.445312 192.730469 121.445312 182.820312 116.214844 174.015625 L 60.621094 80.710938 C 54.289062 69.976562 55.941406 57.042969 64.472656 48.234375 C 73.003906 39.425781 86.214844 37.773438 96.675781 43.832031 L 177.867188 90.34375 L 306.949219 164.65625 C 315.207031 169.609375 320.160156 177.867188 320.160156 187.773438 C 320.160156 197.683594 315.207031 205.941406 306.949219 210.894531 Z M 306.949219 210.894531 " fill-opacity="1" fill-rule="evenodd"/></svg>